<mxfile host="app.diagrams.net" modified="2020-11-27T02:21:06.796Z" agent="5.0 (Windows NT 6.1; Win64; x64) AppleWebKit/537.36 (KHTML, like Gecko) Chrome/86.0.4240.198 Safari/537.36" etag="3ieCzAVWq0TUQ2MrP--c" version="13.10.3" type="github">
  <diagram id="bN34Vr2TGb9hUtaHAPsd" name="Page-1">
    <mxGraphModel dx="868" dy="425" grid="1" gridSize="10" guides="1" tooltips="1" connect="1" arrows="1" fold="1" page="1" pageScale="1" pageWidth="1169" pageHeight="827" math="0" shadow="0">
      <root>
        <mxCell id="0" />
        <mxCell id="1" parent="0" />
        <mxCell id="fRTm9crbE09WPWOibQkh-7" style="edgeStyle=orthogonalEdgeStyle;rounded=0;orthogonalLoop=1;jettySize=auto;html=1;exitX=0.5;exitY=1;exitDx=0;exitDy=0;entryX=0.5;entryY=0;entryDx=0;entryDy=0;" parent="1" source="fRTm9crbE09WPWOibQkh-1" target="fRTm9crbE09WPWOibQkh-3" edge="1">
          <mxGeometry relative="1" as="geometry" />
        </mxCell>
        <mxCell id="fRTm9crbE09WPWOibQkh-8" style="edgeStyle=orthogonalEdgeStyle;rounded=0;orthogonalLoop=1;jettySize=auto;html=1;exitX=0.5;exitY=1;exitDx=0;exitDy=0;entryX=0.5;entryY=0;entryDx=0;entryDy=0;" parent="1" source="fRTm9crbE09WPWOibQkh-1" target="fRTm9crbE09WPWOibQkh-6" edge="1">
          <mxGeometry relative="1" as="geometry" />
        </mxCell>
        <mxCell id="fRTm9crbE09WPWOibQkh-9" style="edgeStyle=orthogonalEdgeStyle;rounded=0;orthogonalLoop=1;jettySize=auto;html=1;exitX=0.5;exitY=1;exitDx=0;exitDy=0;entryX=0.5;entryY=0;entryDx=0;entryDy=0;" parent="1" source="fRTm9crbE09WPWOibQkh-1" target="fRTm9crbE09WPWOibQkh-5" edge="1">
          <mxGeometry relative="1" as="geometry" />
        </mxCell>
        <mxCell id="fRTm9crbE09WPWOibQkh-10" style="edgeStyle=orthogonalEdgeStyle;rounded=0;orthogonalLoop=1;jettySize=auto;html=1;exitX=0.5;exitY=1;exitDx=0;exitDy=0;entryX=0.5;entryY=0;entryDx=0;entryDy=0;" parent="1" source="fRTm9crbE09WPWOibQkh-1" target="fRTm9crbE09WPWOibQkh-4" edge="1">
          <mxGeometry relative="1" as="geometry" />
        </mxCell>
        <mxCell id="fRTm9crbE09WPWOibQkh-1" value="&lt;b&gt;&lt;font style=&quot;font-size: 18px&quot;&gt;模型参数本地化&lt;/font&gt;&lt;/b&gt;" style="rounded=1;whiteSpace=wrap;html=1;fillColor=#FFCC99;" parent="1" vertex="1">
          <mxGeometry x="360" y="140" width="140" height="60" as="geometry" />
        </mxCell>
        <mxCell id="fRTm9crbE09WPWOibQkh-3" value="&lt;font style=&quot;font-size: 18px&quot;&gt;&lt;b&gt;车辆结构&lt;br&gt;本地化&lt;/b&gt;&lt;/font&gt;" style="rounded=1;whiteSpace=wrap;html=1;fillColor=#FFCCCC;" parent="1" vertex="1">
          <mxGeometry x="120" y="240" width="120" height="60" as="geometry" />
        </mxCell>
        <mxCell id="fRTm9crbE09WPWOibQkh-4" value="&lt;font style=&quot;font-size: 18px&quot;&gt;&lt;b&gt;运行工况&lt;br&gt;本地化&lt;/b&gt;&lt;/font&gt;" style="rounded=1;whiteSpace=wrap;html=1;fillColor=#FFCCCC;" parent="1" vertex="1">
          <mxGeometry x="280" y="240" width="120" height="60" as="geometry" />
        </mxCell>
        <mxCell id="fRTm9crbE09WPWOibQkh-5" value="&lt;font style=&quot;font-size: 18px&quot;&gt;&lt;b&gt;排放因子&lt;br&gt;本地化&lt;/b&gt;&lt;/font&gt;" style="rounded=1;whiteSpace=wrap;html=1;fillColor=#FFCCCC;" parent="1" vertex="1">
          <mxGeometry x="480" y="240" width="120" height="60" as="geometry" />
        </mxCell>
        <mxCell id="fRTm9crbE09WPWOibQkh-6" value="&lt;font style=&quot;font-size: 18px&quot;&gt;&lt;b&gt;其它参数&lt;br&gt;本地化&lt;/b&gt;&lt;/font&gt;" style="rounded=1;whiteSpace=wrap;html=1;fillColor=#FFCCCC;" parent="1" vertex="1">
          <mxGeometry x="640" y="240" width="120" height="60" as="geometry" />
        </mxCell>
        <mxCell id="fRTm9crbE09WPWOibQkh-11" value="&lt;div style=&quot;text-align: justify&quot;&gt;&lt;span&gt;&lt;font style=&quot;font-size: 13px&quot;&gt;主要包括环境温度、湿度、燃油品质等数据的本地化&lt;/font&gt;&lt;/span&gt;&lt;/div&gt;" style="rounded=0;whiteSpace=wrap;html=1;fillColor=#CCFFFF;strokeColor=#CCFFFF;" parent="1" vertex="1">
          <mxGeometry x="640" y="330" width="120" height="70" as="geometry" />
        </mxCell>
        <mxCell id="fRTm9crbE09WPWOibQkh-12" value="&lt;div style=&quot;text-align: justify&quot;&gt;&lt;span&gt;&lt;font style=&quot;font-size: 13px&quot;&gt;综合应用国家排放因子库数据与本地车载尾气检测实验相结合&lt;/font&gt;&lt;/span&gt;&lt;/div&gt;" style="rounded=0;whiteSpace=wrap;html=1;fillColor=#CCFFFF;strokeColor=#CCFFFF;" parent="1" vertex="1">
          <mxGeometry x="480" y="330" width="120" height="70" as="geometry" />
        </mxCell>
        <mxCell id="fRTm9crbE09WPWOibQkh-13" value="&lt;div style=&quot;text-align: justify&quot;&gt;&lt;span&gt;&lt;font style=&quot;font-size: 13px&quot;&gt;通过车载GPS采集车辆工况数据，构建道路平均行程车速与车辆运行工况的关系&lt;/font&gt;&lt;/span&gt;&lt;/div&gt;" style="rounded=0;whiteSpace=wrap;html=1;fillColor=#CCFFFF;strokeColor=#CCFFFF;" parent="1" vertex="1">
          <mxGeometry x="280" y="330" width="120" height="70" as="geometry" />
        </mxCell>
        <mxCell id="fRTm9crbE09WPWOibQkh-14" value="&lt;div style=&quot;text-align: justify&quot;&gt;&lt;span&gt;对某类车型需要根据排放标准、使用年限、燃油类型及限行政策进行细化。&lt;/span&gt;&lt;/div&gt;" style="rounded=0;whiteSpace=wrap;html=1;fontSize=13;fillColor=#CCFFFF;strokeColor=#CCFFFF;" parent="1" vertex="1">
          <mxGeometry x="120" y="330" width="120" height="70" as="geometry" />
        </mxCell>
      </root>
    </mxGraphModel>
  </diagram>
</mxfile>
